<svg xmlns="http://www.w3.org/2000/svg" xmlns:xlink="http://www.w3.org/1999/xlink" width="500" zoomAndPan="magnify" viewBox="0 0 375 374.999991" height="500" preserveAspectRatio="xMidYMid meet" version="1.0"><defs><clipPath id="09e466308f"><path d="M 135 17.546875 L 229.1875 17.546875 L 229.1875 84.296875 L 135 84.296875 Z M 135 17.546875 " clip-rule="nonzero"/></clipPath></defs><path fill="#ffffff" d="M 187.507812 -0.00390625 C 84 -0.00390625 0.00390625 83.996094 0.00390625 187.5 C 0.00390625 291.007812 84 375.003906 187.507812 375.003906 C 291.015625 375.003906 375.007812 291.007812 375.007812 187.5 C 375.007812 83.996094 291.015625 -0.00390625 187.507812 -0.00390625 Z M 97.550781 300.539062 C 91 307.242188 79.976562 307.242188 73.425781 300.390625 C 67.019531 293.6875 67.914062 282.816406 74.46875 276.414062 C 94.277344 257.5 117.808594 236.050781 141.039062 215.5 C 146.101562 218.328125 151.910156 219.820312 157.867188 219.820312 C 160.101562 219.820312 162.1875 219.671875 164.421875 219.371094 C 166.804688 219.074219 168.890625 219.519531 170.675781 220.5625 C 146.550781 247.816406 120.191406 277.15625 97.550781 300.539062 Z M 278.652344 301.285156 C 272.992188 307.09375 263.460938 307.09375 257.949219 301.136719 C 230.25 272.09375 202.695312 238.136719 180.804688 214.90625 C 176.335938 209.988281 169.484375 207.605469 162.785156 208.796875 C 162.636719 208.796875 162.632812 208.796875 162.632812 208.796875 C 155.335938 209.839844 147.742188 208.203125 142.527344 202.988281 C 96.359375 157.566406 57.9375 108.867188 72.234375 76.101562 L 189.441406 193.308594 C 189.441406 193.308594 240.226562 242.457031 278.652344 280.730469 C 284.460938 286.390625 284.460938 295.476562 278.652344 301.285156 Z M 304.714844 118.097656 L 240.378906 182.4375 C 231.738281 190.332031 219.527344 192.117188 209.25 187.949219 C 206.421875 186.757812 202.996094 187.203125 200.3125 188.839844 C 198.675781 187.054688 197.484375 186.011719 197.484375 186.011719 L 186.910156 175.4375 C 188.699219 172.757812 188.996094 169.332031 187.804688 166.351562 C 183.484375 155.929688 185.421875 143.863281 193.316406 135.226562 L 257.652344 70.890625 C 259.140625 69.398438 261.671875 69.398438 263.164062 70.890625 C 264.652344 72.378906 264.652344 74.910156 263.164062 76.398438 L 209.847656 129.714844 C 207.460938 132.097656 207.613281 136.121094 210.292969 138.355469 C 212.527344 140.140625 216.101562 139.84375 218.335938 137.609375 L 271.503906 84.441406 C 272.992188 82.953125 275.523438 82.953125 277.011719 84.441406 C 278.503906 85.929688 278.503906 88.460938 277.011719 89.953125 L 223.695312 143.269531 C 221.3125 145.652344 221.460938 149.671875 224.140625 151.90625 C 226.375 153.695312 229.949219 153.394531 232.183594 151.164062 L 285.351562 98.292969 C 286.84375 96.800781 289.375 96.800781 290.863281 98.292969 C 292.355469 99.78125 292.355469 102.3125 290.863281 103.800781 L 237.546875 157.121094 C 235.164062 159.503906 235.3125 163.523438 237.992188 165.757812 C 240.226562 167.542969 243.800781 167.246094 246.035156 165.011719 L 299.203125 111.84375 C 300.691406 110.355469 303.226562 110.355469 304.714844 111.84375 C 306.351562 113.332031 306.351562 115.867188 304.714844 118.097656 Z M 304.714844 118.097656 " fill-opacity="1" fill-rule="nonzero"/><g clip-path="url(#09e466308f)"><path fill="#ffffff" d="M 229.082031 42.753906 C 228.714844 36.898438 224.253906 31.621094 218.617188 30.125 C 215 29.15625 210.875 29.5625 207.570312 31.371094 C 207.429688 30.855469 207.257812 30.339844 207.066406 29.839844 C 204.78125 23.785156 198.816406 19.707031 192.605469 18.464844 C 191.382812 18.210938 190.148438 18.050781 188.90625 17.96875 C 185.332031 17.554688 182.097656 18.863281 179.121094 20.597656 C 171.367188 25.105469 164.988281 32.777344 155.664062 33.738281 C 155.503906 33.75 155.367188 33.871094 155.347656 34.039062 C 155.328125 34.222656 155.460938 34.386719 155.648438 34.402344 C 157.222656 34.605469 158.820312 34.546875 160.386719 34.285156 C 165.0625 33.484375 169.335938 30.992188 173.242188 28.527344 C 177.796875 25.8125 183.199219 21.210938 188.464844 21.753906 C 194.992188 22.070312 201.679688 24.964844 205.074219 30.796875 C 205.390625 31.324219 205.675781 31.875 205.929688 32.441406 C 205.066406 33.105469 204.289062 33.890625 203.636719 34.792969 C 202.847656 35.925781 202.347656 37.304688 202.378906 38.664062 C 202.382812 38.808594 202.480469 38.941406 202.628906 38.980469 C 202.808594 39.027344 202.996094 38.917969 203.042969 38.738281 C 203.355469 37.570312 204.007812 36.582031 204.835938 35.78125 C 205.398438 35.265625 206.011719 34.808594 206.667969 34.414062 C 207.097656 34.15625 207.550781 33.925781 208.011719 33.71875 C 212.042969 31.929688 217.105469 32.207031 220.71875 34.589844 C 223.226562 36.261719 225.066406 38.96875 225.546875 41.949219 C 225.75 43.359375 225.65625 44.792969 225.511719 46.195312 C 225.054688 50.40625 222.953125 54.414062 219.164062 56.378906 C 216.886719 57.585938 214.347656 58.320312 211.769531 58.523438 C 206.914062 59.027344 203.105469 57.183594 198.984375 55.53125 C 202.078125 54.335938 205.078125 51.910156 205.15625 48.417969 C 205.160156 48.050781 204.636719 47.949219 204.503906 48.289062 C 203.613281 50.367188 201.949219 51.695312 199.996094 52.675781 C 198.664062 53.359375 197.234375 53.792969 195.851562 54.378906 C 195.316406 54.207031 194.769531 54.046875 194.210938 53.902344 C 192.871094 53.5625 191.519531 53.328125 190.167969 53.183594 C 193.007812 51.128906 195.195312 47.90625 195.863281 44.699219 C 196.242188 43.035156 196.328125 41.1875 195.613281 39.597656 C 195.453125 39.242188 194.902344 39.417969 194.976562 39.796875 C 195.207031 41.3125 194.847656 42.835938 194.300781 44.242188 C 192.871094 48.101562 189.738281 51.109375 186.058594 52.824219 C 185.949219 52.882812 185.832031 52.933594 185.722656 52.988281 C 184.191406 53.015625 182.660156 53.125 181.128906 53.296875 C 181.226562 53.1875 181.324219 53.082031 181.417969 52.96875 C 183.105469 51.003906 184.214844 48.375 184.085938 45.789062 C 184.078125 45.644531 183.976562 45.511719 183.828125 45.476562 C 183.640625 45.433594 183.457031 45.550781 183.417969 45.738281 C 183.246094 46.476562 183 47.183594 182.695312 47.855469 C 181.769531 49.820312 180.25 51.472656 178.433594 52.636719 C 173.804688 55.636719 166.84375 55.046875 162.175781 52.457031 C 159.648438 50.953125 157.71875 48.515625 155.605469 46.382812 C 155.34375 46.121094 154.921875 46.410156 155.046875 46.746094 C 155.625 48.234375 156.324219 49.667969 157.207031 51.042969 C 159.023438 53.949219 161.492188 55.742188 164.496094 56.722656 C 163.425781 57.074219 162.378906 57.480469 161.363281 57.964844 C 158.671875 59.214844 156.035156 61.035156 153.089844 61.121094 C 146.609375 62.03125 140.347656 52.742188 139 47.167969 C 137.792969 42.425781 139.90625 37.0625 144.128906 34.507812 C 149.472656 31.222656 156.179688 31.339844 162.019531 28.9375 C 164.722656 27.914062 167.035156 26.066406 169.417969 24.519531 C 169.761719 24.300781 169.480469 23.769531 169.097656 23.9375 C 166.550781 25.140625 164.195312 26.6875 161.492188 27.453125 C 157.496094 28.648438 153.160156 28.867188 149.019531 29.785156 C 146.101562 30.410156 143.109375 31.492188 140.746094 33.417969 C 136.675781 36.640625 134.691406 42.160156 135.660156 47.269531 C 136.59375 52.425781 140.347656 58.351562 144.390625 61.671875 C 146.847656 63.707031 150.136719 65.140625 153.453125 64.71875 C 154.335938 64.691406 155.191406 64.554688 156.003906 64.34375 C 156.566406 68.371094 157.042969 72.414062 157.347656 76.460938 C 157.546875 78.886719 157.609375 81.789062 157.570312 84.226562 C 157.570312 84.226562 160.546875 82.835938 160.546875 82.835938 C 163.433594 81.507812 166.714844 80.679688 169.875 80.023438 C 178.558594 78.332031 191.425781 77.128906 199.75 80.296875 C 199.910156 80.363281 200.097656 80.296875 200.175781 80.140625 C 200.261719 79.976562 200.195312 79.777344 200.03125 79.691406 C 191.742188 75.65625 178.460938 75.71875 169.351562 76.65625 C 166.730469 76.964844 164.164062 77.347656 161.617188 78.011719 C 161.070312 73.019531 160.171875 68.09375 159.199219 63.171875 C 159.199219 63.171875 159.199219 63.171875 159.199219 63.167969 C 161.023438 62.335938 162.675781 61.378906 164.5625 60.671875 C 166.824219 59.832031 169.21875 59.332031 171.617188 58.820312 C 175.246094 58.054688 178.949219 57.332031 182.605469 57.019531 C 186.796875 56.664062 190.972656 56.847656 194.957031 58.148438 C 197.285156 58.917969 199.488281 59.972656 201.808594 60.820312 C 201.808594 60.824219 201.808594 60.824219 201.808594 60.824219 C 201.417969 64.761719 201.425781 68.804688 201.316406 72.761719 C 197.539062 71.496094 193.597656 70.808594 189.636719 70.476562 C 184.777344 70.125 179.746094 70.414062 175.167969 72.167969 C 175.011719 72.226562 174.921875 72.394531 174.964844 72.5625 C 175.011719 72.742188 175.195312 72.847656 175.371094 72.800781 C 177.65625 72.207031 180.015625 72.003906 182.359375 72.039062 C 188.179688 72.164062 193.960938 73.589844 199.292969 75.878906 C 200.339844 76.339844 201.355469 76.847656 202.296875 77.398438 C 202.296875 77.398438 205.066406 78.714844 205.066406 78.714844 C 205.101562 77.90625 205.242188 75.4375 205.25 74.664062 C 205.320312 70.542969 205.15625 66.085938 205.417969 61.894531 C 210.636719 63.007812 216.261719 62.203125 220.933594 59.613281 C 227.070312 56.28125 229.457031 49.414062 229.082031 42.753906 Z M 229.082031 42.753906 " fill-opacity="1" fill-rule="nonzero"/></g></svg>